<svg width="272" height="255" viewBox="0 0 272 255" fill="none" xmlns="http://www.w3.org/2000/svg">
<path d="M271.5 193.5C271.5 262.536 186.036 250 117 250C47.9644 250 0 240.036 0 171C0 101.964 68.4644 28.5 137.5 28.5C206.536 28.5 271.5 124.464 271.5 193.5Z" fill="url(#paint0_linear)"/>
<path fill-rule="evenodd" clip-rule="evenodd" d="M96.8117 109.743C95.341 110.567 94.1204 111.13 92.9703 111.515L91.2789 112.08L92.8696 112.886C93.9501 113.433 94.9775 114.131 96.0106 115.02L96.8079 115.706L97.1927 114.728C97.698 113.443 97.944 111.981 97.9235 110.384L97.9074 109.129L96.8117 109.743ZM167.461 113.893C166.084 116.376 164.423 118.82 162.816 121.184C159.269 126.4 155.602 131.794 154.473 138.245C154.341 139.047 154.284 141.871 154.284 141.871L155.336 141.443C158.846 140.014 162.571 138.951 166.172 137.923C167.564 137.526 169.004 137.115 170.415 136.688C170.989 136.534 171.561 136.354 172.113 136.181C173.455 135.759 174.722 135.361 176.054 135.293L176.459 135.273L176.662 134.921C178.498 131.744 177.121 128.716 175.545 125.886C174.598 123.823 173.381 121.885 172.203 120.01C170.982 118.067 169.72 116.058 168.797 113.955L168.192 112.575L167.461 113.893ZM99.7216 140.212C101.808 142.397 103.746 144.618 105.482 146.812L106.8 146.206C106.163 142.965 104.185 140.682 100.574 139.021L99.7216 140.212ZM169.523 189.035C169.314 189.035 169.118 189.116 168.971 189.263C168.822 189.412 168.741 189.613 168.741 189.829L169.523 189.826V189.035ZM82.6987 243.07C81.4728 240.967 81.2927 237.665 83.1299 235.875C82.5119 232.009 83.7259 227.689 86.4144 224.611L86.4206 224.62C90.4124 218.642 90.7057 216.512 87.7892 209.83C82.5769 209.63 77.208 209.571 72.1187 208.353L72.3091 207.216C72.1207 207.165 71.1584 206.913 70.9518 206.86C70.9794 207.071 71.1229 208.037 71.1194 208.231C70.8816 208.491 70.307 208.732 70.2002 208.22C66.9986 194.536 64.1333 181.122 61.02 167.458C57.7616 153.666 51.2087 131.608 67.2489 124.008L66.9177 122.595C66.032 122.595 65.6761 121.63 65.27 120.266C63.4602 115.387 66.9793 110.604 70.2702 107.586C74.7684 103.083 78.9182 98.0828 82.9326 93.2493C94.3837 79.3266 109.965 60.7475 129.881 63.9039L129.814 64.724C132.93 65.1158 136.183 65.9396 139.338 65.3658C150.108 63.4999 161.826 67.7211 168.45 76.3881L168.693 74.7727C168.716 74.6203 168.771 74.4794 169.012 74.4794C169.328 74.4682 169.495 74.7264 169.611 74.9646C181.044 79.4841 185.781 94.1949 189.434 104.278C189.901 105.982 189.769 106.487 189.728 106.587L189.065 106.982C195.955 116.15 199.742 127.178 202.99 137.634C204.064 140.421 204.176 142.352 202.383 144.038C214.206 151.143 223.483 162.217 218.238 174.84C211.392 187.124 193.264 194.918 179.649 201.973C174.242 204.903 166.378 206.463 161.402 211.261C161.07 211.752 160.593 212.231 160.304 212.191C157.995 212.533 154.558 198.108 155.08 196.952C152.643 197.824 149.931 197.778 147.382 198.233C147.61 198.735 148.358 199.414 147.798 199.973C147.836 201.667 147.576 203.498 147.203 205.225C150.263 204.735 150.193 206.34 147.25 205.49C147.17 206.239 146.965 208.146 146.887 208.869C147.766 208.483 149.515 208.212 150.127 208.816C149.877 209.621 147.71 208.863 146.875 209.102C146.387 212.723 146.228 216.284 145.885 219.895C148.49 222.377 152.559 222.964 154.884 225.648C156.854 227.691 156.57 231.12 154.259 232.763C155.674 234.423 154.541 237.179 152.475 237.63C149.659 238.287 146.716 237.378 143.941 236.614C139.326 235.094 134.493 232.725 129.167 229.372C127.06 228.059 125.491 225.997 124.745 223.563C119.342 206.907 117.898 195.589 120.448 189.908C121.904 188.808 123.526 189.487 124.87 188.886C125.511 188.6 126.088 188.215 126.554 186.85C119.543 186.162 109.324 187.441 103.704 184.081L103.902 183.661C103.383 183.329 102.243 181.944 101.809 181.498C102.591 190.904 103.22 200.554 103.531 209.927C104.561 211.661 105.437 213.456 106.398 215.459C107.066 216.115 108.235 217.24 107.549 217.985C107.549 217.985 113.319 231.497 115.082 238.328C116.761 238.399 117.442 241.243 117.378 243.132C117.123 246.57 112.711 246.935 108.844 247.272C106.198 247.55 103.477 247.693 100.796 247.693C95.9533 247.697 83.8443 247.364 82.6987 243.07Z" fill="white"/>
<path fill-rule="evenodd" clip-rule="evenodd" d="M151.35 196.281C149.445 196.729 147.525 197.101 145.609 197.501C145.117 197.716 142.645 197.751 143.096 198.558C143.093 198.56 143.092 198.563 143.09 198.564C143.593 198.951 144.274 198.732 144.881 198.782C140.169 200.711 136.938 196.737 137.805 192.202C137.928 191.392 138.087 190.471 138.437 189.73C138.622 189.399 139.95 186.842 140.185 187.715C140.001 187.825 140.521 187.87 140.449 187.475C156.629 187.296 152.645 179.861 154.18 195.648C153.229 195.72 152.278 196.062 151.35 196.281ZM147.418 203.173C147.329 203.568 147.23 203.972 147.115 204.363C143.95 204.912 141.622 206.517 146.634 206.215C146.49 206.806 146.354 207.4 146.226 207.996C145.606 208.234 143.352 208.989 143.468 209.71C144.249 209.885 145.101 209.561 145.904 209.596C145.382 213.046 144.621 216.576 144.69 220.074C144.681 221.226 146.441 221.444 146.667 220.302C148.799 223.43 155.228 224.652 154.618 229.223C154.278 230.157 153.833 230.794 152.876 230.828C152.197 231.003 151.44 231.805 151.83 232.52L151.813 232.526C151.887 233.173 152.626 233.407 153.112 233.593C153.594 233.968 153.612 234.573 153.229 235.138C151.354 237.111 146.01 235.145 143.687 234.496C138.972 232.86 134.515 230.491 130.263 227.898C128.27 226.751 126.9 224.83 126.251 222.646C123.329 212.249 119.537 201.217 121.256 190.342C122.001 189.283 123.614 189.475 124.664 188.914C122.928 195.315 125.805 201.963 126.976 208.274C129.393 219.638 131.297 228.702 143.826 232.494C145.517 232.848 149.162 234.128 150.416 232.709C150.815 232.327 150.775 231.689 150.416 231.3C149.782 230.453 148.733 230.554 147.786 230.458C145.334 230.152 142.934 229.408 140.747 228.257C135.885 225.857 132.505 221.229 131.646 215.892C130.187 209.885 128.877 203.828 127.172 197.883C126.006 193.839 124.1 190.319 128.319 187.341C131.174 187.425 134.032 187.504 136.888 187.513C136.185 188.694 135.407 190.183 135.803 191.582C134.061 195.528 136.31 200.787 140.649 201.793C143.05 202.309 145.543 201.694 147.758 200.68C147.724 201.514 147.618 202.32 147.418 203.173ZM102.924 183.847C102.912 183.686 102.899 183.523 102.887 183.36C103.107 183.603 103.36 183.82 103.631 184.016C103.397 183.956 103.163 183.896 102.924 183.847ZM103.344 210.492C103.573 211.316 103.828 212.132 104.105 212.94C99.9851 211.751 94.4913 210.763 91.0666 213.992C90.5777 212.675 89.9944 211.427 89.1769 210.3C93.3464 209.826 97.5473 210.088 101.716 209.664C102.023 210.246 102.727 210.592 103.344 210.492ZM90.5983 219.993C90.6133 219.95 90.6294 219.908 90.6444 219.867C90.8792 219.838 91.1125 219.81 91.346 219.779C91.0959 219.847 90.8471 219.918 90.5983 219.993ZM105.115 215.809C105.27 216.341 105.681 216.668 106.096 216.704C106.507 217.151 106.669 217.828 107.217 218.135C109.293 224.995 112.085 231.659 113.492 238.715C103.87 241.827 94.8519 242.005 85.1691 238.868C85.4017 238.639 85.5112 238.333 85.5162 237.992C85.5223 237.998 85.5297 238.003 85.5372 238.01C84.2277 231.587 84.9663 229.566 88.3103 224.075C92.8033 223.882 97.3097 223.716 101.807 223.85C102.863 223.974 104.912 223.106 103.989 221.846C102.905 220.658 101.202 220.98 99.7468 221.057C96.3507 221.227 92.9622 221.727 89.7259 222.793C90.066 222.071 90.1716 221.213 90.4451 220.447C93.5823 220.092 96.7506 220.008 99.8973 220.27C101.07 220.38 102.453 220.943 103.468 220.126C105.281 216.975 92.4434 218.702 90.9676 219.054C91.4535 217.914 91.9718 216.731 91.75 215.453C94.9848 212.908 101.766 213.787 105.115 215.809ZM114.633 240.948C114.892 241.13 115.223 241.121 115.503 240.997C116.151 242.562 115.701 244.164 113.908 244.531C110.64 245.297 107.234 245.439 103.892 245.636C100.335 245.775 96.7661 245.672 93.2232 245.335C87.5377 245.165 82.4862 243.567 82.7184 236.903C82.9459 237.793 83.0944 239.157 84.2386 239.213C93.1674 243.923 104.76 244.371 113.974 240.278C114.133 240.531 114.343 240.746 114.633 240.948ZM72.0136 207.668C72.0123 207.649 72.0123 207.633 72.0097 207.615C72.1058 207.64 72.2021 207.668 72.2996 207.692C72.2039 207.683 72.1094 207.674 72.0136 207.668ZM97.3436 110.145C97.3612 111.522 97.1713 112.918 96.6642 114.207C95.6554 113.339 94.5657 112.577 93.3739 111.973C94.7582 111.51 96.0708 110.858 97.3436 110.145ZM68.6096 122.716C68.7961 122.388 67.9662 122.789 67.837 122.806C68.3778 122.372 68.2676 121.45 67.6406 121.202C64.667 116.024 68.2742 111.322 72.0869 107.882C78.5939 101.454 83.8901 93.9668 89.94 87.1272C97.5722 88.3987 104.944 91.6636 110.638 96.9231C104.807 102.296 98.7244 107.943 91.3857 111.155C90.7035 110.824 89.7962 110.915 89.5693 111.654C88.7272 111.807 87.8876 112.021 87.0476 112.158C87.0052 112.164 87.0114 112.226 87.0476 112.236C87.8733 112.52 88.7242 112.71 89.6065 112.653C98.0936 115.606 101.268 124.729 107.307 130.687C112.237 134.996 119.308 138.175 120.019 145.506C121.207 147.875 122.064 150.348 121.749 153.002C121.832 155.075 121.107 157.131 121.699 159.142C120.454 163.896 119.027 168.842 115.462 172.426C115.361 172.402 115.256 172.408 115.159 172.455C115.415 170.866 115.69 169.28 115.962 167.694C116.989 165.596 117.646 163.34 118.077 161.049C118.252 159.895 116.554 159.664 116.483 160.839C115.325 164.96 113.923 169.842 109.898 172.239C110.63 169.47 111.514 166.733 112.733 164.14C113.2 163.276 113.64 162.398 114.072 161.517C114.537 160.564 113.148 159.725 112.631 160.677C110.752 164.255 108.979 168.308 105.399 170.449C106.529 166.717 108.018 163.06 109.429 159.42C109.586 159.046 109.26 158.604 108.908 158.503C108.479 158.38 108.145 158.655 107.99 159.024C107.423 160.335 106.993 161.854 106.079 162.991C105.711 164.25 103.145 166.196 104.449 163.309C105.718 159.594 106.579 155.632 108.399 152.168C108.9 145.883 107.949 141.952 101.884 139.043C101.005 138.603 99.9135 138.041 98.8586 137.852C95.9101 134.922 92.7615 132.199 89.3751 129.729C82.5135 124.55 72.0817 119.924 64.2144 125.702C65.4771 124.457 66.9427 123.427 68.6096 122.716ZM98.5341 77.9859C106.685 70.0432 117.304 63.711 129.003 63.7087C128.899 63.7434 128.88 63.8701 128.942 63.9521C120.067 101.265 162.681 115.77 170.424 74.8298C178.552 80.1251 184.716 93.9102 187.528 103.019C180.241 103.583 173.684 108.179 169.438 113.929C169.072 113.307 168.993 112.57 169.981 112.75C170.207 112.534 169.174 112.658 169.087 112.834C171.052 108.645 173.074 104.309 174.22 99.7387C174.254 99.6233 174.091 99.5588 174.029 99.6581C172.306 102.399 170.495 105.081 168.814 107.848C163.127 118.963 151.777 128.73 152.259 142.004C152.257 142.005 152.256 142.007 152.254 142.008C152.475 142.392 152.387 142.926 152.722 143.262C150.974 150.992 146.614 158.891 139.533 162.872C134.184 165.334 128.362 162.481 123.745 159.691C123.574 158.058 123.403 156.427 123.231 154.796C124.072 154.585 123.965 153.049 123.99 152.374C124.166 149.53 123.43 146.739 121.916 144.302C121.217 140.684 119.259 137.469 116.427 135.121C114.536 133.507 112.435 132.167 110.509 130.6C105.396 126.452 102.657 120.29 98.1373 115.6C98.6819 113.632 98.797 111.662 98.2144 109.638C101.445 107.556 119.049 96.0864 115.782 92.0733C115.309 91.3713 114.282 91.4955 114.013 92.304C113.672 93.4027 113.166 94.4181 112.329 95.224C106.411 89.8631 98.535 86.3064 90.454 86.5385C93.0417 83.5849 95.7151 80.7021 98.5341 77.9859ZM129.705 64.3783C134.755 66.8847 140.844 65.1508 146.231 65.3706C154.515 65.6982 162.554 69.7671 167.688 76.2719C165.678 85.1376 160.885 95.2203 151.135 97.2549C141.471 98.9894 132.93 90.7188 130.624 81.8723C129.077 76.196 129.044 70.1943 129.705 64.3783ZM199.246 127.713C199.987 129.713 200.689 131.726 201.37 133.747C202.057 135.806 202.865 137.849 203.427 139.946C203.193 140.949 202.635 141.75 202.077 142.593C197.906 148.859 189.423 148.273 183.256 151.316C182.285 151.775 181.112 152.348 180.263 153.155C179.119 153.581 178.794 154.938 178.975 156.042C179.979 161.624 180.797 167.15 181.039 172.811C181.117 174.374 181.167 176.006 180.678 177.498C178.898 176.067 177.866 167.82 177.818 165.384C177.796 164.772 177.025 164.732 176.81 165.247C174.191 172.405 175.554 180.268 175.229 187.733C171.52 182.344 171.51 175.547 171.308 169.252C171.265 168.245 169.722 168.233 169.731 169.252C169.508 175.877 170.467 183.081 169.743 189.531C166.978 182.728 166.202 175.091 166.918 167.804C165.597 171.647 165.644 176.919 166.083 181.234C164.786 181.378 165.653 185.074 165.261 186.132C157.948 169.355 165.498 159.52 173.535 145.355C175.215 141.249 179.837 133.888 178.514 129.705C178.042 128.235 177.204 126.917 176.416 125.602C174.178 121.894 171.863 118.233 169.716 114.473C170.096 114.173 170.468 113.862 170.835 113.545C175.75 109.165 180.233 105.75 187.159 105.256C192.543 111.96 196.297 119.676 199.246 127.713ZM169.715 189.598C169.669 189.733 169.598 189.467 169.737 189.548C169.73 189.564 169.721 189.581 169.715 189.598ZM176.162 178.588C176.195 175.841 176.16 173.065 176.538 170.344C176.39 173.091 176.287 175.841 176.162 178.588ZM173.547 134.797C167.43 136.659 161.172 138.142 155.22 140.505C155.531 130.239 163.617 122.575 168.28 114.006C170.119 118.197 173.137 121.804 175.045 125.974C176.51 128.601 177.846 131.421 176.182 134.301C175.311 134.27 174.341 134.594 173.547 134.797ZM106.167 146.007C104.343 143.733 102.435 141.542 100.429 139.449C103.426 140.828 105.578 142.76 106.235 146.102C106.214 146.071 106.191 146.04 106.167 146.007ZM139.409 187.501C139.185 187.667 139.096 187.749 138.933 187.875C139.091 187.757 139.228 187.559 139.409 187.501ZM219.129 160.247C216.271 152.974 210.226 147.607 203.687 143.611C205.329 141.701 204.644 139.249 203.857 137.127C200.579 126.595 196.884 115.947 190.317 106.955C191.697 106.133 188.824 99.7998 188.41 98.2746C184.889 89.718 179.61 77.3879 170.288 74.1058C169.8 73.2545 168.303 73.2098 168.122 74.4139C161.113 66.2194 149.926 62.6419 139.376 64.3836C136.218 64.9349 133.191 64.1169 130.072 63.7361C131.611 63.7994 133.141 63.9845 134.648 64.3149C134.766 64.341 134.811 64.1758 134.697 64.136C125.164 60.5609 114.492 63.4358 106.272 68.8956C91.5718 78.8182 82.2796 94.4137 69.9288 106.792C66.4106 110.06 63.0468 114.711 64.5734 119.744C64.9897 121.04 65.3715 123.092 67.0848 123.092C50.3107 131.38 57.2422 153.081 60.4593 167.375C63.5542 180.957 66.467 194.583 69.6413 208.146C69.8839 209.155 70.9713 209.214 71.5895 208.7C76.7401 210.021 82.1593 210.114 87.4524 210.308C90.1572 216.744 89.671 218.241 85.9608 223.967C86.018 223.957 86.0852 223.95 86.1673 223.947C86.0801 223.952 85.9821 223.98 85.9098 224.038C85.9251 224.016 85.9374 224.005 85.9608 223.967C85.6971 224.013 85.6983 224.117 85.763 224.139C85.8077 224.1 85.8538 224.065 85.9035 224.035C85.901 224.043 85.901 224.047 85.9086 224.039C85.8699 224.132 85.8041 224.152 85.763 224.139C83.2574 227.256 81.9693 231.407 82.5109 235.388C80.6765 237.445 80.8835 240.886 82.2098 243.179C83.8548 246.373 87.506 247.236 90.809 247.525C94.863 248.056 98.9561 248.273 103.044 248.162C105.064 248.107 107.081 247.976 109.091 247.765C112.533 247.392 117.77 247.364 118.288 242.953C118.403 241.311 117.705 237.877 115.858 237.454C114.121 230.8 111.995 224.035 108.077 218.302C109.252 217.297 108.057 215.568 107.175 214.759C106.333 213.005 105.483 211.253 104.499 209.572C104.772 208.561 104.094 207.934 104.228 206.931C104.26 199.311 103.475 191.717 102.946 184.119C108.335 187.896 118.994 186.745 125.608 187.263C124.583 189.558 121.747 187.289 119.988 189.238C116.177 197.45 121.438 215.023 124.199 223.532C124.987 226.105 126.645 228.326 128.936 229.754C133.625 232.706 138.614 235.344 143.891 237.079C146.751 237.871 149.855 238.809 152.818 238.105C155.117 237.548 156.621 234.784 155.377 232.663C157.692 230.583 157.641 227.127 155.619 224.917C153.306 222.2 149.437 221.6 146.83 219.336C147.133 216.071 147.29 212.818 147.704 209.567C148.663 209.52 149.622 209.929 150.522 209.485C152.24 207.83 149.306 207.144 147.918 207.574C147.969 207.099 148.019 206.626 148.07 206.151C151.112 206.83 151.213 203.888 148.295 204.147C148.569 202.76 148.717 201.349 148.713 199.949C149.006 199.508 148.988 198.97 148.746 198.556C150.647 198.268 152.676 198.255 154.517 197.702C154.557 200.093 158.185 217.253 162.112 211.524C164.217 209.299 167.088 207.977 169.899 206.836C173.336 205.42 176.754 203.958 180.128 202.401C190.165 197.763 199.875 192.363 208.837 185.876C217.881 180.064 223.681 170.975 219.129 160.247Z" fill="black"/>
<path fill-rule="evenodd" clip-rule="evenodd" d="M172.207 48.3933C171.372 38.2305 168.83 29.2295 156.885 28.8457C151.495 28.8938 145.993 30.0373 141.036 32.153C128.988 38.1852 125.165 60.227 135.78 69.0998C135.717 69.1356 135.701 69.2392 135.776 69.2893C137.969 70.7625 140.406 71.9746 142.848 72.9931C149.351 75.7385 157.006 76.931 163.638 73.953C173.759 69.6525 173.911 57.6862 172.207 48.3933Z" fill="white"/>
<path fill-rule="evenodd" clip-rule="evenodd" d="M192.129 43.6564C192.545 43.2823 192.855 42.7916 193.012 42.2415C193.155 41.7398 193.165 41.1921 193.013 40.6917C192.85 40.1549 192.499 39.7273 192.578 39.1686C192.586 39.114 192.597 39.0569 192.614 38.9998C192.918 37.948 193.666 37.1889 193.399 36.023C193.323 35.6938 193.181 35.3975 192.983 35.1643C193.005 34.9116 193.024 34.6566 193.04 34.4015C193.479 33.3752 193.463 32.1558 192.995 31.1453C192.938 30.6279 192.851 30.1154 192.73 29.6113C192.786 29.1656 192.708 28.6749 192.564 28.2851C192.312 27.5991 192.001 26.9231 191.662 26.2582C191.702 26.0764 191.684 25.8843 191.584 25.7134C191.401 25.4028 191.16 25.1298 190.913 24.8629C190.738 24.5516 190.563 24.2429 190.388 23.9382C190.308 23.7981 190.218 23.6428 190.12 23.4782C190.388 22.982 190.531 22.4983 190.248 21.9147C190.141 21.6955 189.849 21.5339 189.608 21.5482C189.344 21.5639 189.079 21.5756 188.811 21.5857C188.312 20.9835 187.746 20.4429 187.14 20.1318C186.525 19.6119 185.903 19.1018 185.297 18.5808C185.125 18.4326 184.953 18.2844 184.781 18.1363C184.78 18.1326 184.779 18.1278 184.778 18.1241C184.651 17.6638 184.509 17.2096 184.366 16.7529C184.278 16.4699 184.251 16.1736 183.975 16.0193C183.398 15.6975 182.512 15.6464 181.85 15.5918C181.784 15.5335 181.719 15.4764 181.653 15.4181C181.953 14.6189 181.9 13.77 181.522 12.9696C181.393 12.6975 180.945 12.5748 180.699 12.7546C180.133 13.17 179.46 13.3169 178.795 13.2562C177.817 12.5056 173.872 9.11144 173.263 8.75314C173.255 8.74027 173.249 8.7274 173.241 8.71464C172.899 8.16834 172.482 7.72964 172.015 7.37791C171.948 7.30831 171.881 7.2386 171.814 7.16888C171.873 6.75242 172.028 6.35028 172.277 6.01385C172.303 5.97498 172.334 5.93733 172.364 5.90089C172.8 5.3835 172.268 4.71792 171.66 4.98877C171.616 5.0082 171.572 5.02763 171.529 5.04828C171.061 5.25645 170.544 5.48272 170.005 5.67365C169.808 5.59993 169.607 5.53313 169.424 5.45953L167.461 4.67165C167.138 4.54193 166.796 4.43202 166.484 4.27959C166.375 3.55584 165.649 3.08119 164.894 3.10597C164.938 2.96703 165.003 2.83209 165.094 2.7042C165.121 2.66655 165.15 2.63011 165.181 2.59489C165.569 2.14429 165.051 1.30868 164.496 1.70948C164.457 1.73742 164.417 1.76535 164.378 1.79329C164.224 1.90126 164.066 2.00255 163.907 2.10069C163.651 1.98944 163.364 1.96405 163.063 2.08174C162.397 2.34226 161.782 2.60716 161.196 3.01549C161.172 3.03213 161.147 3.04609 161.123 3.06176C160.832 2.71051 160.37 2.47562 159.953 2.47817C159.945 2.47817 159.938 2.47805 159.931 2.47793C159.619 2.00437 159.049 1.72916 158.498 1.79608C158.535 1.11654 157.854 0.510113 157.234 0.43639C156.509 0.350399 155.856 0.770512 155.638 1.47641C155.578 1.67292 155.517 1.86956 155.457 2.06619C154.894 1.7826 154.3 1.56531 153.68 1.45685C152.268 1.20982 150.886 1.47289 149.525 1.86446C149.389 1.90357 149.253 1.94377 149.118 1.98385C148.923 1.75928 148.741 1.52936 148.567 1.31475C148.267 0.944315 147.546 1.24066 147.594 1.71677C147.628 2.0453 147.494 2.28166 147.279 2.44963C147.043 2.48412 146.815 2.49457 146.47 2.48764C146.015 2.47841 145.808 2.4642 145.332 2.27886C145.11 2.19263 144.834 1.96587 144.704 1.76231C144.209 0.981723 142.95 0.771484 142.35 1.51576C141.719 1.23994 140.922 1.62033 140.572 2.15668C140.389 2.43712 140.006 2.59392 139.525 2.72873C139.164 2.82978 138.794 2.9063 138.423 2.97322C138.257 2.74914 137.909 2.5989 137.654 2.78679C137.48 2.91444 137.312 3.04549 137.147 3.17982C135.868 3.35568 134.597 3.362 133.378 2.86428C132.346 2.44283 131.398 3.59386 131.569 4.56015C131.27 4.71549 130.946 4.81885 130.65 4.9816C130.006 5.33698 129.478 5.89871 129.155 6.55869C129.097 6.67687 129.045 6.79687 128.996 6.91747C128.755 7.11314 128.517 7.31402 128.284 7.52596C127.898 7.32799 127.512 7.13002 127.125 6.93205C126.836 6.78387 126.348 6.88711 126.291 7.27091C126.197 7.90247 125.97 8.42594 125.645 8.8644C124.589 9.41823 123.574 10.0401 122.602 10.7312C121.484 11.081 120.296 11.285 119.319 11.5145C118.985 11.5935 118.802 12.0295 118.991 12.3198C119.19 12.6271 119.39 12.9344 119.588 13.2416C119.032 13.7833 118.51 14.3493 118.018 14.9347C116.647 16.5622 115.5 18.3464 114.473 20.2362C114.067 20.4002 113.661 20.5629 113.255 20.7269C112.863 20.8848 112.687 21.339 113.004 21.673C113.155 21.8321 113.29 21.9998 113.406 22.1759C112.83 23.1269 112.153 23.994 111.205 24.5625C110.917 24.7349 110.701 25.0058 110.585 25.313C110.486 25.3786 110.389 25.4491 110.293 25.5207C110.026 25.7224 109.864 26.162 110.178 26.4231C110.398 26.6078 110.604 26.8264 110.78 27.0681C110.817 27.2053 110.856 27.3438 110.895 27.481C110.015 28.2899 109.282 29.23 108.733 30.2842C108.602 30.2636 108.469 30.2769 108.36 30.3571C107.378 31.0822 107.348 32.2372 107.744 33.2696C107.505 34.8254 107.659 36.4201 108.118 37.9274C107.514 38.5298 107.15 39.3994 107.002 40.2374C106.74 41.7095 106.722 43.9734 106.654 45.4758C105.995 46.111 105.525 46.9333 105.264 47.8175C105.044 47.9268 104.823 48.0361 104.603 48.1454C104.407 48.2425 104.264 48.4988 104.276 48.715C104.332 49.7607 104.764 50.5866 105.337 51.3348C105.54 51.9117 105.84 52.4437 106.234 52.9538C106.507 53.3036 106.773 53.6388 107.008 54.0165C107.032 54.0542 107.047 54.0894 107.058 54.1137C106.965 54.2133 106.889 54.3785 106.822 54.4963C106.26 55.4849 106.251 56.6436 107.049 57.5047C106.749 57.75 106.739 58.2456 107.004 58.5492C108.73 60.518 110.169 62.9119 112.564 63.9576C112.575 63.9758 112.585 63.994 112.593 64.0123C112.108 65.1782 112.042 65.7843 112.439 66.9891C112.441 67.0001 112.445 67.0098 112.448 67.0207C112.66 67.6523 113.049 68.664 113.751 68.8607C113.972 68.9227 114.19 68.9506 114.405 68.9494C114.962 69.485 115.518 70.0219 116.074 70.5587C116.123 70.8247 116.153 71.0931 116.163 71.3639C116.179 71.817 116.606 72.1838 117.065 72.0502C117.227 72.0028 118.122 71.1344 118.287 71.1392C118.369 71.2218 118.45 71.3044 118.53 71.3882C118.825 71.6979 119.235 72.1862 119.269 72.5105C119.335 73.1214 119.736 73.821 120.385 73.9449C120.628 74.1914 121.017 74.2655 121.315 73.9436C121.335 73.923 121.354 73.9023 121.375 73.8841C121.406 73.8805 121.437 73.8768 121.468 73.8732C121.612 74.3007 121.755 74.7282 121.9 75.1545C122.184 75.995 123.266 76.5355 124.035 76.0448C124.159 76.1189 124.28 76.1978 124.402 76.2768C124.587 76.3946 124.774 76.5148 124.966 76.6278C124.977 76.6594 124.988 76.6909 124.998 76.7213C125.122 77.099 125.638 77.3019 125.955 77.0845C126.054 77.116 126.155 77.1415 126.257 77.1622C126.793 77.2679 127.333 77.2387 127.851 77.0602C128.222 76.9339 128.576 76.6922 128.975 76.6594C129 76.6573 129.026 76.659 129.051 76.6583C129.377 77.3241 130.12 77.8979 130.707 78.0928C131.474 78.3482 132.26 78.2569 132.959 77.9441C133.148 78.3208 133.385 78.6773 133.668 79.0071C133.825 79.1893 134.108 79.1504 134.27 79.0071C134.577 78.7352 134.882 78.4619 135.187 78.1882C135.408 78.1034 135.631 78.0014 135.863 77.9067C136.589 77.6104 137.386 77.4876 138.058 77.0593C138.377 76.856 138.677 76.5966 138.924 76.296C139.39 76.0276 139.818 75.6932 140.203 75.31C140.395 75.3112 140.596 75.2663 140.79 75.1679C141.604 74.755 142.032 73.9145 142.07 73.0546C142.729 71.506 143.118 69.8543 143.225 68.1636C143.259 67.6086 143.266 67.0486 143.223 66.4936C143.194 66.1025 143.095 65.8414 142.947 65.4879C142.897 65.3726 142.852 65.2669 142.817 65.1503C142.825 64.7762 142.83 64.4021 142.835 64.0293C142.936 63.7147 143.116 63.422 143.366 63.1754C143.754 62.7941 143.932 62.0022 143.579 61.5309C143.349 61.2261 143.121 60.9212 142.891 60.6164C142.955 59.3083 143.269 57.2266 142.573 57.0079C142.601 56.8136 142.661 56.6217 142.695 56.4286C142.858 55.5007 142.761 54.6712 142.267 53.8598C142.164 53.691 142.076 53.5416 142.004 53.3959C141.959 53.1287 141.914 52.8615 141.869 52.5943C141.8 52.1825 141.732 51.7672 141.673 51.3494C141.643 50.8174 141.615 50.2854 141.585 49.7522C141.557 49.2616 141.525 48.7709 141.492 48.279C141.506 48.0591 141.525 47.8393 141.553 47.6195C141.72 46.309 142.256 45.8244 143.185 44.9135C143.331 44.8904 143.476 44.8649 143.618 44.8357C144.281 44.6985 144.974 44.4859 145.657 44.5625C146.397 44.645 147.06 44.9645 147.78 44.5564C147.992 44.4349 148.458 44.0997 148.498 43.8337C148.5 43.8167 148.504 43.8022 148.509 43.7912C148.559 43.7839 148.623 43.7779 148.663 43.7766C149.235 43.7572 149.781 43.9819 150.358 43.92C151.04 43.8471 151.651 43.5447 152.052 43.0965C152.567 43.2228 153.092 43.2799 153.626 43.2094C154.074 43.1511 154.475 43.0054 154.871 42.7892C155.16 42.6338 155.068 42.5888 155.382 42.7151C156.096 43.0042 156.742 43.3856 157.546 43.1876C157.963 43.0856 158.323 42.8609 158.626 42.5584C158.698 42.488 158.819 42.3823 158.901 42.2827C159.283 42.4759 160.244 42.9119 160.402 42.9507C160.849 43.0601 161.324 43.0431 161.759 42.8973C162.079 42.7904 162.471 42.4989 162.752 42.4394C163.115 42.3617 163.923 42.8669 164.357 43.0406C165.119 43.3455 165.925 43.4208 166.696 43.1062C166.961 42.9981 167.477 42.5669 167.675 42.5706C167.998 42.9678 168.898 45.1406 169.168 45.9337C170.261 49.1401 170.545 59.1516 170.04 61.7058C170.02 61.7811 170 61.8552 169.979 61.9305C169.359 64.1519 168.713 66.411 167.675 68.4806C166.696 70.4312 165.342 72.1874 163.4 73.2526C161.386 74.3578 159.021 74.6481 156.757 74.4987C155.298 74.404 153.864 74.1112 152.453 73.7445C151.716 73.5538 150.985 73.3412 150.258 73.1202C149.941 73.0242 149.618 72.9343 149.307 72.8226C148.757 72.6246 148.469 72.6089 147.942 72.8627C147.463 73.0935 147.34 73.7748 147.589 74.2036C147.996 74.9031 148.74 74.9517 149.459 75.1558C150.191 75.3634 150.926 75.5626 151.665 75.7412C153.082 76.0812 154.522 76.3424 155.975 76.4626C158.575 76.68 161.254 76.3448 163.621 75.2116C163.889 75.0829 164.147 74.9456 164.396 74.7975C164.304 74.9262 164.21 75.055 164.115 75.1825C163.852 75.5359 164.047 76.1371 164.416 76.3302C164.532 76.391 164.649 76.4493 164.767 76.5063C164.783 76.544 164.8 76.5816 164.819 76.6193C165.156 77.2946 165.862 77.693 166.581 77.8654C167.434 78.0695 168.39 77.9249 169.259 77.8994C170.064 77.8751 170.869 77.8509 171.673 77.8266C171.863 77.8217 172.053 77.8156 172.242 77.8096C173.198 77.7804 174.153 77.7525 175.108 77.7233C175.959 77.6978 175.919 77.7634 176.718 77.4233C177.075 77.2703 177.367 77.0541 177.612 76.7663C177.766 76.6982 177.914 76.6205 178.056 76.5318C178.514 76.2476 178.92 75.8663 179.295 75.446C179.931 75.6464 180.822 75.4606 180.946 74.6627C181.146 73.3862 182.807 72.8408 183.583 71.9178C184.21 71.1732 184.657 70.198 184.634 69.2616C186.213 68.4988 187.071 66.4887 187.272 64.7835C187.366 63.9928 187.351 63.1463 187.486 62.3423C187.546 62.2779 187.599 62.2099 187.644 62.137C188.041 61.4969 188.386 60.8374 188.69 60.1621C189.104 59.8646 189.601 59.6812 190.122 59.6508C191.401 59.5767 191.642 57.8533 190.422 57.4379C190.416 57.4355 190.411 57.4343 190.405 57.4318C190.736 56.6059 190.708 55.6282 190.307 54.8461C190.324 54.761 190.34 54.6772 190.355 54.5922C191.04 53.8574 191.433 52.836 191.389 51.8413C191.702 51.6214 192.052 51.4514 192.435 51.3457C193.028 51.183 193.031 50.4615 192.593 50.1385C192.417 50.0085 192.271 49.8567 192.15 49.6891C192.452 48.7806 192.333 47.73 191.714 46.9843C192.107 46.4814 192.5 45.9786 192.893 45.4758C193.153 45.143 193.29 44.5782 192.893 44.2625C192.638 44.0596 192.384 43.858 192.129 43.6564Z" fill="black"/>
<path fill-rule="evenodd" clip-rule="evenodd" d="M163.615 65.6367C162.79 65.9607 161.815 66.0373 160.962 65.7612C160.148 65.4971 159.408 64.9094 158.96 64.1703C158.562 63.5121 158.395 62.7308 158.631 61.9521C158.642 61.9148 158.679 61.8909 158.714 61.8816C158.907 62.0569 159.026 62.231 159.145 62.4042C159.345 62.6962 159.546 62.9852 159.822 63.2349C160.224 63.5981 160.765 63.8931 161.302 63.9904C161.828 64.0858 162.366 64.0015 162.837 63.7502C163.123 63.5975 163.354 63.3933 163.584 63.1882C163.833 62.9648 164.079 62.7381 164.423 62.6119C164.698 62.5108 164.987 62.5961 165.21 62.7652C165.449 62.947 165.62 63.2315 165.611 63.5289C165.596 63.9897 165.394 64.3741 165.101 64.6912C164.705 65.12 164.145 65.4289 163.615 65.6367ZM162.635 54.1531C163.554 54.7106 164.953 56.0105 163.965 57.3926C162.802 58.6112 161.128 57.214 160.303 56.5821C159.537 56.0923 158.678 57.3519 159.388 57.9237C165.35 62.332 167.77 54.2989 163.1 53.4976C162.586 53.4093 162.395 53.9806 162.635 54.1531ZM152.975 46.4287C154.227 46.369 155.33 46.9304 156.523 47.1854C157.625 47.4213 158.711 47.2797 159.783 46.9797C161.524 46.4927 162.243 49.1526 160.527 49.671C159.277 50.0485 157.961 50.0747 156.678 49.8801C155.539 49.7072 154.584 49.1533 153.497 48.8309C152.565 48.5543 151.469 48.6692 150.484 48.7995L150.102 48.8508C149.534 48.9272 148.963 49.0038 148.4 49.1147C147.912 49.211 147.425 49.3873 146.927 49.4077C146.871 49.4101 146.823 49.3367 146.858 49.2878C147.437 48.4946 148.552 47.8688 149.439 47.4514L149.499 47.4232C150.594 46.9135 151.756 46.4868 152.975 46.4287ZM152.516 52.2775L152.516 52.2501C152.518 51.4756 152.969 49.7073 154.086 49.7073C154.783 49.7073 155.207 50.9108 155.28 52.1514L155.283 52.202C155.315 52.9733 155.103 54.6592 154.086 54.6592C153.058 54.6592 152.527 53.0624 152.516 52.2775ZM168.955 52.2775L168.955 52.2501C168.953 51.4756 168.502 49.7073 167.385 49.7073C166.705 49.7073 166.285 50.8514 166.197 52.0584L166.191 52.1514C166.147 52.8967 166.345 54.6592 167.385 54.6592C168.413 54.6592 168.944 53.0624 168.955 52.2775ZM168.938 45.4855L169.018 45.4872C170.322 45.5324 171.665 46.3043 172.013 47.6008C172.031 47.6681 171.948 47.7134 171.899 47.6672C170.826 46.6642 169.383 47.6226 168.308 48.125L167.914 48.3071C166.529 48.9505 164.953 49.707 163.416 49.2275C162.685 48.9997 162.221 48.2503 162.43 47.4934C162.615 46.82 163.429 46.254 164.134 46.4971L164.166 46.5087C164.739 46.7275 165.444 46.5058 166.035 46.2872L166.521 46.105C167.303 45.8088 168.088 45.4775 168.938 45.4855Z" fill="black"/>
<defs>
<linearGradient id="paint0_linear" x1="-2.02283e-06" y1="139.695" x2="287.354" y2="139.695" gradientUnits="userSpaceOnUse">
<stop stop-color="#FF7A00"/>
<stop offset="1" stop-color="#FC4040"/>
</linearGradient>
</defs>
</svg>
