<svg width="183" height="116" viewBox="0 0 183 116" fill="none" xmlns="http://www.w3.org/2000/svg">
<path fill-rule="evenodd" clip-rule="evenodd" d="M22.6728 42.564C17.0285 42.5551 11.6189 40.3044 7.63401 36.307C3.64914 32.3096 1.41546 26.8929 1.42434 21.2485C1.43323 15.6042 3.68395 10.1946 7.68138 6.20969C11.6788 2.22482 17.0955 -0.00885826 22.7398 2.64035e-05H38.8398C37.8742 0.912445 37.105 2.01236 36.5793 3.23242C36.0535 4.45248 35.7824 5.76701 35.7824 7.09553C35.7824 8.42404 36.0535 9.73857 36.5793 10.9586C37.105 12.1787 37.8742 13.2786 38.8398 14.191H22.7368C20.8554 14.191 19.051 14.9384 17.7206 16.2688C16.3902 17.5992 15.6428 19.4036 15.6428 21.285C15.6428 23.1665 16.3902 24.9709 17.7206 26.3012C19.051 27.6316 20.8554 28.379 22.7368 28.379H53.6638H53.7298C59.3493 28.4175 64.7255 30.6769 68.6855 34.6641C72.6455 38.6514 74.868 44.0429 74.868 49.6625C74.868 55.2821 72.6455 60.6737 68.6855 64.6609C64.7255 68.6482 59.3493 70.9075 53.7298 70.946H53.6968H8.55584C6.67466 70.9505 4.86874 70.2076 3.53536 68.8806C2.20197 67.5535 1.45035 65.7512 1.44584 63.87C1.44133 61.9888 2.18431 60.1829 3.51131 58.8495C4.83832 57.5162 6.64066 56.7645 8.52184 56.76H53.7308C55.5978 56.7379 57.3808 55.9806 58.6932 54.6526C60.0056 53.3245 60.7416 51.5326 60.7416 49.6655C60.7416 47.7984 60.0056 46.0065 58.6932 44.6785C57.3808 43.3504 55.5978 42.5932 53.7308 42.571L22.6728 42.564Z" fill="white"/>
<path fill-rule="evenodd" clip-rule="evenodd" d="M92.077 -4.53591e-05C101.482 0.00260647 110.502 3.74122 117.151 10.3934C123.8 17.0456 127.534 26.0666 127.532 35.472C127.532 35.731 127.532 35.989 127.524 36.247L127.532 36.259C127.532 38.9493 128.062 41.6134 129.091 44.099C130.121 46.5846 131.63 48.8431 133.533 50.7455C135.435 52.6478 137.693 54.1569 140.179 55.1865C142.665 56.216 145.329 56.746 148.019 56.746C150.709 56.746 153.373 56.216 155.859 55.1865C158.345 54.1569 160.603 52.6478 162.505 50.7455C164.408 48.8431 165.917 46.5846 166.947 44.099C167.976 41.6134 168.506 38.9493 168.506 36.259V7.09195C168.495 6.15373 168.67 5.22263 169.021 4.3526C169.373 3.48257 169.893 2.69091 170.553 2.02351C171.212 1.35612 171.998 0.826243 172.863 0.464603C173.729 0.102964 174.658 -0.083252 175.596 -0.083252C176.535 -0.083252 177.464 0.102964 178.33 0.464603C179.195 0.826243 179.981 1.35612 180.64 2.02351C181.3 2.69091 181.82 3.48257 182.172 4.3526C182.523 5.22263 182.698 6.15373 182.687 7.09195V36.258C182.691 43.5417 180.4 50.6416 176.14 56.5498C171.88 62.4581 165.868 66.8744 158.956 69.1721C152.044 71.4698 144.584 71.532 137.634 69.3499C130.685 67.1678 124.6 62.8523 120.242 57.016C116.937 61.3493 112.675 64.8608 107.79 67.2765C102.904 69.6922 97.527 70.947 92.077 70.943H66.586C71.878 67.7389 75.7889 62.681 77.558 56.753H92.077C97.6741 56.7515 103.045 54.5448 107.027 50.6109C111.008 46.6769 113.279 41.3327 113.348 35.736C113.348 35.407 113.337 35.048 113.334 34.671C113.128 29.1703 110.799 23.9635 106.835 20.1441C102.871 16.3248 97.5815 14.1903 92.077 14.189H46.377C44.51 14.1669 42.7269 13.4098 41.4145 12.0819C40.102 10.7539 39.3659 8.96207 39.3657 7.09495C39.3656 5.22783 40.1015 3.43591 41.4138 2.10775C42.7261 0.77959 44.509 0.0222519 46.376 -4.53591e-05H92.077Z" fill="white"/>
<path fill-rule="evenodd" clip-rule="evenodd" d="M114.19 3.7419C114.936 2.34896 116.127 1.24532 117.572 0.606205C119.018 -0.0329072 120.635 -0.17086 122.168 0.214249C123.701 0.599357 125.061 1.48545 126.032 2.73186C127.004 3.97826 127.531 5.51352 127.531 7.0939V20.0289C124.67 13.4744 120.053 7.83796 114.19 3.7419Z" fill="white"/>
<path fill-rule="evenodd" clip-rule="evenodd" d="M141.347 35.4719C141.347 37.3529 142.094 39.1567 143.424 40.4867C144.754 41.8168 146.558 42.5639 148.439 42.5639C150.32 42.5639 152.124 41.8168 153.454 40.4867C154.784 39.1567 155.531 37.3529 155.531 35.4719V7.09295C155.533 5.25547 154.82 3.48934 153.542 2.16895C152.717 4.91262 151.135 7.36773 148.976 9.2518C146.818 11.1359 144.172 12.3723 141.342 12.8189L141.347 35.4719Z" fill="white"/>
<path fill-rule="evenodd" clip-rule="evenodd" d="M0.637207 94.3299L0.661207 91.5059L1.60721 91.5129L1.78221 93.3589L1.99221 93.6319C2.24469 93.7624 2.51386 93.8576 2.79221 93.9149C3.1169 93.982 3.44765 94.0155 3.77921 94.0149C4.41399 94.0573 5.0438 93.8781 5.56121 93.5079C5.77471 93.3438 5.94616 93.1312 6.06143 92.8878C6.1767 92.6444 6.23249 92.3771 6.22421 92.1079C6.23154 91.2873 5.46987 90.5433 3.93921 89.8759L3.55621 89.7099C2.74994 89.4135 2.01234 88.9562 1.38821 88.3659C1.02429 87.9145 0.839195 87.345 0.868207 86.7659C0.858702 86.3416 0.946814 85.9207 1.12575 85.5358C1.30468 85.1509 1.56965 84.8122 1.90021 84.5459C2.6712 83.9536 3.62953 83.6583 4.60021 83.7139C5.05253 83.7169 5.5038 83.7581 5.94921 83.8369C6.41696 83.9229 6.87836 84.0405 7.33021 84.1889L7.31221 86.6759L6.47121 86.6699L6.24021 85.1369L6.00521 84.8699C5.79887 84.75 5.57523 84.6626 5.34221 84.6109C5.08607 84.5516 4.82411 84.5211 4.56121 84.5199C3.98279 84.4833 3.41172 84.6653 2.96121 85.0299C2.76361 85.2063 2.60739 85.4242 2.50367 85.6679C2.39996 85.9116 2.35131 86.1752 2.36121 86.4399C2.35284 86.6378 2.38389 86.8353 2.45256 87.0211C2.52123 87.2068 2.62615 87.3771 2.76121 87.5219C3.30669 87.9725 3.92575 88.3257 4.59121 88.5659C4.67921 88.6049 4.81121 88.6589 4.99121 88.7289C5.73199 88.9858 6.41546 89.385 7.00321 89.9039C7.2323 90.1282 7.41064 90.3989 7.52621 90.6979C7.64396 91.0092 7.70132 91.3401 7.69521 91.6729C7.70344 92.125 7.60291 92.5725 7.40208 92.9776C7.20125 93.3828 6.906 93.7337 6.54121 94.0009C5.66146 94.6253 4.59515 94.9311 3.51821 94.8679C2.98938 94.8654 2.46175 94.8172 1.94121 94.7239C1.49296 94.6427 1.05546 94.5105 0.637207 94.3299Z" fill="white"/>
<path fill-rule="evenodd" clip-rule="evenodd" d="M10.6812 83.957L14.6132 83.988V84.629L13.6132 84.717L13.3362 84.94L13.2932 90.747C13.2089 91.6164 13.4419 92.487 13.9492 93.198C14.2358 93.4746 14.5782 93.6866 14.9535 93.8199C15.3288 93.9533 15.7283 94.0048 16.1252 93.971C16.5204 94.0085 16.919 93.9612 17.2945 93.8322C17.6699 93.7032 18.0135 93.4955 18.3022 93.223C18.8213 92.5234 19.0699 91.6596 19.0022 90.791L19.0492 85.097L18.7492 84.797L17.7882 84.65V84.006L21.1782 84.035V84.675L20.2122 84.81L19.9222 85.101L19.8772 90.938C19.8903 91.5308 19.8305 92.1229 19.6992 92.701C19.5939 93.0903 19.4064 93.4525 19.1492 93.763C18.7819 94.1719 18.3141 94.4777 17.7922 94.65C17.1585 94.8699 16.4907 94.9749 15.8202 94.96C15.1471 94.9662 14.4786 94.85 13.8472 94.617C13.3294 94.4394 12.8674 94.1291 12.5072 93.717C12.253 93.4031 12.0702 93.0376 11.9712 92.646C11.8511 92.0654 11.8018 91.4725 11.8242 90.88L11.8702 84.931L11.5972 84.702L10.6812 84.602V83.957Z" fill="white"/>
<path fill-rule="evenodd" clip-rule="evenodd" d="M23.3638 94.825V94.169L24.3778 94.098L24.6518 93.87L24.7208 85.031L24.4498 84.802L23.4388 84.702V84.062L27.3538 84.09V84.734L26.4388 84.818L26.1608 85.046L26.0918 94.113L29.7178 94.141L29.9468 93.883L30.2368 91.96L31.0668 91.966L31.0458 94.889L23.3638 94.825Z" fill="white"/>
<path fill-rule="evenodd" clip-rule="evenodd" d="M33.4131 94.9029V94.2469L34.3231 94.1749L34.5981 93.9469L34.6671 85.1079L34.3951 84.8789L33.4881 84.7789V84.1389L41.1721 84.1989L41.1561 86.5389L40.2561 86.5309L40.0401 85.1659L39.8201 84.9229L36.1101 84.8909L36.0771 88.9509L38.7091 88.9719L38.9381 88.7489L39.1061 87.5799L39.8621 87.5859L39.8351 91.1229L39.0761 91.1169L38.9291 89.9539L38.7031 89.7089L36.0711 89.6909L36.0381 94.1909L40.3381 94.2249L40.5671 93.9669L40.8561 92.3479L41.6841 92.3549L41.6721 94.9689L33.4131 94.9029Z" fill="white"/>
<path fill-rule="evenodd" clip-rule="evenodd" d="M43.6002 84.2109L47.3302 84.2419V84.8819L46.4122 84.9719L46.2462 85.1489L48.6722 89.5809L51.3952 85.3109L51.2472 85.0829L50.2712 84.9049V84.2609L53.5462 84.2879V84.9279L52.5652 85.1279L49.1842 90.4479L49.1572 94.0619L49.4142 94.2939L50.5012 94.3779V95.0389L46.3492 95.0049L46.3552 94.3489L47.4442 94.2799L47.7002 94.0469L47.7252 90.6469L44.5702 85.0169L43.5942 84.8539L43.6002 84.2109Z" fill="white"/>
<path fill-rule="evenodd" clip-rule="evenodd" d="M55.229 95.071V94.415L56.192 94.295L56.484 93.995L56.553 85.281L56.353 85.052L55.291 84.943V84.303L58.698 84.327V84.758L61.652 92.841L64.761 84.864V84.371L68.193 84.399V85.042L67.179 85.126L66.984 85.355L66.917 94.194L67.11 94.422L68.119 94.509L68.113 95.167L64.283 95.14L64.291 94.482L65.348 94.414L65.505 94.185L65.575 85.132L61.698 95.12H61.008L57.428 85.241L57.358 94.002L57.647 94.309L58.626 94.442V95.103L55.229 95.071Z" fill="white"/>
<path fill-rule="evenodd" clip-rule="evenodd" d="M75.1148 86.0058L73.4978 90.4478L76.7348 90.4698L75.1148 86.0058ZM74.8788 84.3188L75.9358 84.3288L79.7028 94.4038L80.6668 94.6038V95.2648L77.0228 95.2348V94.5788L78.0228 94.5088L78.1428 94.2798L77.0018 91.2118L73.2218 91.1808L72.0568 94.2368L72.2188 94.4648L73.2608 94.5518L73.2548 95.2128L70.1138 95.1888V94.5278L71.0378 94.3388L74.8788 84.3188Z" fill="white"/>
<path fill-rule="evenodd" clip-rule="evenodd" d="M82.5552 95.2829V94.6269L83.5362 94.5069L83.8292 94.2069L83.8952 85.4939L83.6082 85.2649L82.5822 85.1649V84.5249L85.5992 84.5459V84.9459L91.0102 93.2079L91.0672 85.6599L90.7812 85.3689L89.8182 85.2179V84.5779L93.1872 84.6019V85.2459L92.2212 85.3789L91.9322 85.6649L91.8562 95.3649L90.8002 95.3579L84.7662 86.1829L84.7032 94.2069L84.9892 94.5159L85.9532 94.6479V95.3089L82.5552 95.2829Z" fill="white"/>
<path fill-rule="evenodd" clip-rule="evenodd" d="M104.43 85.418L104.358 94.718L105.628 94.729C106.225 94.7806 106.826 94.7064 107.392 94.5112C107.958 94.3161 108.477 94.0043 108.915 93.596C109.718 92.6179 110.115 91.3693 110.026 90.107C110.136 88.849 109.761 87.5966 108.976 86.607C108.542 86.1937 108.027 85.8758 107.463 85.6737C106.899 85.4717 106.299 85.39 105.701 85.434L104.43 85.418ZM105.769 84.693C107.352 84.6045 108.91 85.1194 110.129 86.134C110.655 86.6481 111.063 87.2704 111.325 87.9577C111.588 88.6451 111.697 89.3811 111.647 90.115C111.657 90.9862 111.479 91.8494 111.126 92.646C110.783 93.3803 110.261 94.017 109.609 94.498C109.132 94.8517 108.59 95.1073 108.014 95.25C107.249 95.415 106.466 95.4858 105.684 95.461L101.728 95.432L101.737 94.766L102.649 94.696L102.921 94.473L102.988 85.632L102.717 85.4L101.81 85.3V84.656L105.769 84.693Z" fill="white"/>
<path fill-rule="evenodd" clip-rule="evenodd" d="M114.769 95.5299V94.8739L115.679 94.8019L115.954 94.5739L116.025 85.7349L115.754 85.5059L114.847 85.4059V84.7659L122.531 84.8259L122.515 87.1659L121.615 87.1579L121.401 85.7929L121.181 85.5499L117.471 85.5179L117.437 89.5779L120.069 89.5989L120.298 89.3759L120.467 88.2069L121.223 88.2129L121.196 91.7499L120.437 91.7439L120.289 90.5809L120.063 90.3349L117.431 90.3169L117.398 94.8169L121.698 94.8529L121.927 94.5939L122.216 92.9749L123.044 92.9819L123.025 95.5959L114.769 95.5299Z" fill="white"/>
<path fill-rule="evenodd" clip-rule="evenodd" d="M125.9 95.616V94.96L126.863 94.839L127.163 94.539L127.23 85.824L127.025 85.596L125.96 85.496L125.966 84.856L129.372 84.88V85.31L132.328 93.394L135.431 85.412V84.919L138.863 84.947L138.857 85.59L137.851 85.673L137.658 85.901L137.589 94.74L137.782 94.969L138.79 95.057V95.713L134.96 95.686L134.966 95.025L136.023 94.958L136.18 94.729L136.25 85.675L132.373 95.663L131.683 95.657L128.103 85.778L128.031 94.542L128.318 94.851L129.297 94.984V95.645L125.9 95.616Z" fill="white"/>
<path fill-rule="evenodd" clip-rule="evenodd" d="M141.792 95.743V95.087L142.819 95.015L143.094 94.787L143.163 85.948L142.891 85.719L141.867 85.619L141.873 84.979L145.944 85.007L145.938 85.651L144.912 85.735L144.635 85.963L144.566 94.802L144.84 95.031L145.867 95.118V95.777L141.792 95.743Z" fill="white"/>
<path fill-rule="evenodd" clip-rule="evenodd" d="M151.59 85.7799L151.555 90.2479C151.715 90.2559 151.868 90.2599 152.015 90.2629C152.162 90.2659 152.306 90.2709 152.437 90.2709C153.197 90.3406 153.959 90.1624 154.609 89.7629C154.849 89.5579 155.036 89.299 155.156 89.0075C155.276 88.7159 155.325 88.4001 155.299 88.0859C155.33 87.7623 155.283 87.4359 155.164 87.1335C155.045 86.831 154.856 86.5608 154.613 86.3449C153.942 85.9251 153.154 85.73 152.364 85.7879L151.59 85.7799ZM148.971 85.0229L153.059 85.0569C154.082 84.987 155.1 85.2425 155.968 85.7869C156.29 86.0469 156.542 86.3816 156.705 86.7618C156.867 87.1419 156.934 87.556 156.899 87.9679C156.908 88.2821 156.854 88.5948 156.74 88.8878C156.627 89.1808 156.456 89.448 156.237 89.6739C155.693 90.1704 155.014 90.4959 154.286 90.6099C154.643 90.7027 154.983 90.8497 155.294 91.0459C155.554 91.2128 155.772 91.4382 155.929 91.7039C156.145 92.1012 156.295 92.5307 156.374 92.9759C156.445 93.3533 156.543 93.7252 156.666 94.0889C156.77 94.458 157.003 94.7774 157.323 94.9889C157.768 95.1851 158.253 95.2708 158.738 95.2389H158.879V95.8529C158.639 95.8979 158.419 95.9289 158.214 95.9529C158.021 95.974 157.827 95.9837 157.632 95.9819C157.311 95.9869 156.991 95.9462 156.681 95.8609C156.435 95.7948 156.208 95.6738 156.015 95.5069C155.526 94.9529 155.203 94.2722 155.082 93.5429C154.994 93.1899 154.919 92.9269 154.863 92.7549C154.731 92.22 154.43 91.7418 154.005 91.3909C153.505 91.1021 152.931 90.9685 152.355 91.0069C152.196 91.0069 151.945 91.0069 151.602 91.0259L151.548 91.0339L151.517 94.8509L151.791 95.0789L152.704 95.1659V95.8219L148.889 95.7949V95.1339L149.802 95.0619L150.074 94.8389L150.143 85.9979L149.871 85.7659L148.962 85.6659L148.971 85.0229Z" fill="white"/>
<path fill-rule="evenodd" clip-rule="evenodd" d="M161.175 95.888V95.232L162.085 95.16L162.36 94.932L162.429 86.093L162.156 85.864L161.249 85.764L161.255 85.124L168.938 85.182L168.92 87.524L168.02 87.516L167.808 86.151L167.586 85.908L163.876 85.876L163.842 89.936L166.474 89.957L166.705 89.734L166.873 88.565L167.629 88.571L167.602 92.108L166.843 92.102L166.697 90.937L166.473 90.693L163.841 90.675L163.806 95.175L168.106 95.209L168.335 94.951L168.624 93.33L169.452 93.339L169.434 95.955L161.175 95.888Z" fill="white"/>
<path fill-rule="evenodd" clip-rule="evenodd" d="M172.243 95.9749V95.3189L173.257 95.2479L173.529 95.0199L173.598 86.1809L173.329 85.9519L172.318 85.8519L172.324 85.2119L176.238 85.2399L176.232 85.8839L175.319 85.9679L175.041 86.1969L174.971 95.2619L178.599 95.2899L178.826 95.0319L179.115 93.1079L179.944 93.1139L179.923 96.0369L172.243 95.9749Z" fill="white"/>
<path fill-rule="evenodd" clip-rule="evenodd" d="M0 103.263L3.932 103.295V103.936L2.932 104.024L2.656 104.247L2.613 110.054C2.52947 110.924 2.7647 111.796 3.275 112.506C3.56133 112.783 3.90369 112.996 4.27903 113.129C4.65437 113.263 5.05399 113.315 5.451 113.281C5.84621 113.319 6.24489 113.271 6.62033 113.142C6.99578 113.013 7.33934 112.805 7.628 112.533C8.14707 111.833 8.39568 110.97 8.328 110.101L8.371 104.406L8.071 104.106L7.1 103.963L7.106 103.319L10.497 103.347L10.491 103.987L9.528 104.12L9.235 104.41L9.2 110.248C9.21328 110.841 9.15384 111.433 9.023 112.011C8.91782 112.4 8.73026 112.762 8.473 113.073C8.10519 113.482 7.63711 113.787 7.115 113.96C6.48139 114.18 5.81355 114.285 5.143 114.27C4.46998 114.276 3.80144 114.16 3.17 113.927C2.65233 113.749 2.1903 113.439 1.83 113.027C1.57529 112.713 1.39234 112.348 1.294 111.956C1.17394 111.375 1.12458 110.782 1.147 110.19L1.193 104.242L0.915 104.006L0 103.906V103.263Z" fill="white"/>
<path fill-rule="evenodd" clip-rule="evenodd" d="M21.062 114.2V113.544L22.043 113.424L22.335 113.124L22.401 104.411L22.115 104.182L21.089 104.082V103.441L24.106 103.462V103.862L29.517 112.124L29.575 104.576L29.289 104.285L28.325 104.135V103.495L31.694 103.517V104.161L30.73 104.296L30.44 104.582L30.365 114.282L29.306 114.275L23.271 105.1L23.21 113.123L23.497 113.432L24.46 113.564V114.225L21.062 114.2Z" fill="white"/>
<path fill-rule="evenodd" clip-rule="evenodd" d="M42.5488 114.362V113.706L43.5758 113.634L43.8518 113.406L43.9188 104.568L43.6478 104.339L42.6238 104.239V103.599L46.6968 103.629L46.6908 104.273L45.6638 104.357L45.3888 104.585L45.3198 113.423L45.5938 113.652L46.6208 113.739V114.398L42.5488 114.362Z" fill="white"/>
<path fill-rule="evenodd" clip-rule="evenodd" d="M56.8458 103.703L60.5828 103.734V104.374L59.6488 104.462L59.4748 104.687L62.4288 112.798L65.3888 104.732L65.2348 104.504L64.2408 104.404V103.76L67.4408 103.787V104.427L66.4408 104.608L62.6748 114.596L61.5608 114.589L57.8658 104.543L56.8418 104.343L56.8458 103.703Z" fill="white"/>
<path fill-rule="evenodd" clip-rule="evenodd" d="M77.5259 114.632V113.976L78.4359 113.904L78.7119 113.676L78.7789 104.838L78.5079 104.609L77.6009 104.509V103.868L85.2849 103.928L85.2669 106.27L84.3669 106.262L84.1529 104.897L83.9329 104.653L80.2209 104.623L80.1899 108.682L82.8219 108.703L83.0509 108.48L83.2169 107.311L83.9749 107.317L83.9589 110.847H83.1999L83.0519 109.683L82.8269 109.439L80.1949 109.421L80.1589 113.921L84.4589 113.957L84.6889 113.698L84.9759 112.078L85.8059 112.086L85.7879 114.705L77.5259 114.632Z" fill="white"/>
<path fill-rule="evenodd" clip-rule="evenodd" d="M99.4221 104.768L99.3871 109.23C99.5491 109.238 99.7011 109.242 99.8501 109.245C99.9991 109.248 100.137 109.253 100.271 109.254C101.031 109.323 101.793 109.145 102.444 108.746C102.683 108.541 102.87 108.282 102.989 107.99C103.109 107.699 103.158 107.384 103.133 107.07C103.165 106.746 103.12 106.42 103.001 106.117C102.881 105.815 102.692 105.545 102.448 105.33C101.776 104.91 100.988 104.715 100.198 104.773L99.4221 104.768ZM96.7981 104.011L100.886 104.044C101.91 103.975 102.929 104.231 103.798 104.776C104.119 105.037 104.371 105.371 104.532 105.752C104.694 106.132 104.76 106.545 104.726 106.957C104.735 107.271 104.681 107.584 104.567 107.877C104.454 108.17 104.282 108.437 104.063 108.662C103.521 109.159 102.844 109.484 102.117 109.598C102.473 109.692 102.812 109.839 103.123 110.034C103.384 110.2 103.601 110.426 103.758 110.692C103.975 111.089 104.125 111.519 104.203 111.965C104.275 112.342 104.372 112.713 104.493 113.077C104.599 113.446 104.832 113.765 105.152 113.977C105.597 114.173 106.082 114.258 106.567 114.227H106.709V114.841C106.468 114.886 106.245 114.917 106.041 114.941C105.849 114.963 105.655 114.973 105.461 114.972C105.14 114.976 104.819 114.935 104.509 114.849C104.263 114.784 104.036 114.663 103.844 114.496C103.355 113.942 103.032 113.261 102.913 112.532C102.822 112.179 102.747 111.916 102.691 111.744C102.56 111.209 102.26 110.731 101.835 110.381C101.337 110.093 100.765 109.958 100.19 109.993C100.034 109.993 99.7831 109.993 99.4381 110.011L99.3831 110.02L99.3551 113.837L99.6271 114.065L100.542 114.152V114.808L96.7251 114.781L96.7311 114.12L97.6411 114.048L97.9161 113.825L97.9831 104.986L97.7111 104.754L96.8041 104.654L96.7981 104.011Z" fill="white"/>
<path fill-rule="evenodd" clip-rule="evenodd" d="M117.463 114.618L117.487 111.795L118.432 111.802L118.609 113.648L118.816 113.922C119.071 114.051 119.341 114.146 119.621 114.203C119.946 114.27 120.277 114.304 120.609 114.303C121.242 114.345 121.87 114.165 122.386 113.795C122.599 113.631 122.771 113.418 122.886 113.175C123.001 112.932 123.057 112.664 123.049 112.395C123.056 111.574 122.297 110.831 120.764 110.164C120.599 110.089 120.471 110.034 120.382 109.996C119.576 109.7 118.838 109.243 118.214 108.654C117.85 108.203 117.665 107.633 117.693 107.054C117.684 106.629 117.773 106.209 117.952 105.824C118.131 105.439 118.397 105.1 118.728 104.834C119.499 104.242 120.457 103.947 121.428 104.004C121.88 104.008 122.331 104.049 122.777 104.127C123.245 104.213 123.707 104.33 124.159 104.477L124.138 106.966L123.3 106.96L123.064 105.426L122.833 105.16C122.626 105.04 122.403 104.952 122.17 104.899C121.912 104.84 121.648 104.81 121.384 104.809C120.808 104.773 120.239 104.955 119.792 105.32C119.594 105.496 119.437 105.713 119.334 105.957C119.23 106.2 119.182 106.464 119.192 106.728C119.184 106.926 119.215 107.123 119.283 107.308C119.352 107.494 119.457 107.664 119.592 107.808C120.138 108.258 120.757 108.611 121.422 108.852C121.51 108.892 121.644 108.945 121.822 109.015C122.562 109.273 123.246 109.672 123.834 110.19C124.062 110.415 124.24 110.686 124.357 110.984C124.476 111.295 124.534 111.626 124.528 111.959C124.535 112.412 124.434 112.86 124.233 113.265C124.031 113.671 123.735 114.022 123.37 114.289C122.492 114.913 121.427 115.218 120.352 115.155C119.822 115.153 119.293 115.105 118.771 115.011C118.321 114.93 117.883 114.798 117.463 114.618Z" fill="white"/>
<path fill-rule="evenodd" clip-rule="evenodd" d="M135.93 115.082V114.426L136.957 114.355L137.232 114.127L137.299 105.288L137.028 105.059L136.014 104.955L136.02 104.315L140.091 104.346L140.085 104.989L139.059 105.073L138.781 105.301L138.714 114.14L138.988 114.369L140.014 114.455V115.114L135.93 115.082Z" fill="white"/>
<path fill-rule="evenodd" clip-rule="evenodd" d="M150.861 104.428L159.924 104.5L159.901 106.966L159.016 106.959L158.809 105.466L158.583 105.222L156.13 105.206L156.061 114.273L156.323 114.505L157.403 114.589V115.25L153.212 115.216V114.56L154.287 114.489L154.564 114.261L154.631 105.196L152.184 105.175L151.951 105.416L151.714 106.904L150.837 106.896L150.861 104.428Z" fill="white"/>
<path fill-rule="evenodd" clip-rule="evenodd" d="M169.913 104.575L173.643 104.607L173.637 105.247L172.721 105.337L172.556 105.515L174.979 109.945L177.707 105.678L177.564 105.449L176.586 105.269L176.592 104.625L179.864 104.649L179.858 105.289L178.876 105.489L175.496 110.808L175.464 114.422L175.722 114.654L176.809 114.74V115.401L172.657 115.367V114.711L173.747 114.641L174.007 114.413L174.034 111.013L170.879 105.383L169.901 105.22L169.913 104.575Z" fill="white"/>
<path fill-rule="evenodd" clip-rule="evenodd" d="M102.33 25.3659C102.15 24.9659 100.24 24.3789 99.9302 24.2869C98.1309 23.7787 96.2348 23.7169 94.4062 24.1069C93.7308 24.2598 93.0697 24.4702 92.4302 24.7359C92.5202 24.9159 93.2382 25.7919 93.3962 26.0179L93.9132 26.6249C94.3402 27.1419 95.3262 28.3759 95.7132 28.7579L96.4752 29.6109C96.6126 29.5453 96.741 29.4623 96.8572 29.3639C96.9666 29.2549 97.0869 29.1574 97.2162 29.0729C97.3512 28.9589 97.4412 28.8919 97.5752 28.7799C97.6953 28.7046 97.8067 28.616 97.9072 28.5159L98.6262 27.9749C99.3672 27.4149 99.9952 26.9199 100.781 26.3379C101.277 25.9818 101.794 25.6572 102.33 25.3659Z" fill="white"/>
<path fill-rule="evenodd" clip-rule="evenodd" d="M100.736 35.745C100.489 35.3849 100.203 35.0532 99.8829 34.756L98.9829 33.812L97.8829 34.846C97.8068 34.9192 97.7249 34.9861 97.6379 35.046C97.5709 35.113 97.5239 35.181 97.4379 35.271C97.3519 35.361 97.2579 35.383 97.1909 35.496C97.7023 36.1552 98.2819 36.7585 98.9199 37.296L100.376 36.057L100.488 35.945C100.58 35.8906 100.663 35.8232 100.736 35.745Z" fill="white"/>
<path fill-rule="evenodd" clip-rule="evenodd" d="M98.1538 38.0359C97.9163 37.6951 97.6452 37.3788 97.3448 37.0919C97.0818 36.7649 96.7885 36.4636 96.4688 36.1919C96.0949 36.5049 95.7422 36.8423 95.4128 37.2019C95.3448 37.2969 95.2703 37.3872 95.1898 37.4719L94.6718 37.9889C94.5838 38.1009 94.5158 38.1009 94.4038 38.2359C94.7502 38.7342 95.1577 39.187 95.6168 39.5839C95.7457 39.7385 95.8966 39.8733 96.0648 39.9839C96.1998 39.9389 96.2218 39.8479 96.3348 39.7369C96.7388 39.3169 97.8168 38.4419 98.1538 38.0359Z" fill="white"/>
<path fill-rule="evenodd" clip-rule="evenodd" d="M98.4011 33.1619C98.3328 33.0599 98.2579 32.9623 98.1771 32.8699C98.0871 32.8029 98.1101 32.8029 98.0421 32.7129L97.9071 32.5779L96.4261 30.8479C95.8845 31.2912 95.367 31.7632 94.8761 32.2619C94.7641 32.3759 94.6071 32.4429 94.5391 32.6439L95.7501 34.0369C96.0003 34.32 96.2795 34.576 96.5831 34.8009L98.4011 33.1619Z" fill="white"/>
<path fill-rule="evenodd" clip-rule="evenodd" d="M95.8189 35.4091C95.4369 34.8701 95.0549 34.5331 94.6739 34.0381C94.456 33.7364 94.2081 33.4576 93.9339 33.2061C93.731 33.3518 93.5428 33.5169 93.3719 33.6991L92.2939 34.7991C92.0919 34.9715 91.911 35.1672 91.7549 35.3821C91.8799 35.5815 92.0309 35.7634 92.2039 35.9231C92.3609 36.0791 92.5179 36.3231 92.6759 36.4621C92.9758 36.8263 93.3064 37.1642 93.6639 37.4721L94.7869 36.4621C95.1524 36.1328 95.4971 35.7811 95.8189 35.4091Z" fill="white"/>
<path fill-rule="evenodd" clip-rule="evenodd" d="M95.3252 40.755C95.2106 40.5884 95.0829 40.4312 94.9432 40.285L94.3362 39.609C94.1424 39.3766 93.9241 39.1657 93.6852 38.98C93.6096 39.0954 93.5203 39.2011 93.4192 39.295C93.1032 39.609 92.6112 40.171 92.4072 40.351L92.1152 40.688C92.074 40.7444 92.0202 40.7906 91.9582 40.823L90.8352 42.104C90.7682 42.171 90.7452 42.171 90.7002 42.237C90.6332 42.304 90.6332 42.349 90.5652 42.394C90.0733 42.9197 89.6232 43.483 89.2192 44.079C89.2642 44.124 89.2192 44.101 89.2642 44.124C89.7818 44.5737 90.3468 44.9656 90.9492 45.293C91.0392 45.293 91.2632 45.023 91.3082 44.956L92.0082 44.169C92.1882 44.012 92.2322 43.899 92.3902 43.769L95.3252 40.755Z" fill="white"/>
<path fill-rule="evenodd" clip-rule="evenodd" d="M106.552 41.4729L103.923 38.9359C103.387 38.4419 102.264 37.2269 102.017 37.0029C101.811 36.7741 101.593 36.5561 101.364 36.3499C101.284 36.3952 101.21 36.4485 101.141 36.5089C100.598 36.9692 100.087 37.4657 99.6118 37.9949C99.914 38.3729 100.254 38.7193 100.626 39.0289C100.731 39.1478 100.842 39.2604 100.961 39.3659C101.388 39.7469 102.331 40.6919 102.713 40.9829C102.981 41.2079 103.632 41.8589 103.948 42.1069L105.248 43.1869C105.779 42.6958 106.22 42.1157 106.552 41.4729Z" fill="white"/>
<path fill-rule="evenodd" clip-rule="evenodd" d="M92.9891 38.2169C92.8107 37.8984 92.5923 37.604 92.3391 37.3409C91.9726 36.8519 91.559 36.4001 91.1041 35.9919C91.0371 36.1279 90.7041 36.3919 90.5651 36.5759L89.1721 38.1039C88.7721 38.5039 88.3641 39.0249 87.9621 39.4519C87.9033 39.498 87.8499 39.5507 87.8031 39.6089C87.7074 39.7085 87.6172 39.8134 87.5331 39.9229C87.3013 40.2606 87.03 40.5695 86.7251 40.8429C86.8851 41.2734 87.1129 41.6755 87.4001 42.0339C87.5781 42.2589 88.1161 42.9099 88.2081 43.0899C88.4991 42.8926 88.7625 42.6571 88.9911 42.3899L89.2601 42.0529C89.5345 41.7239 89.8269 41.4105 90.1361 41.1139C90.1865 41.0663 90.2321 41.0137 90.2721 40.9569C90.3625 40.8464 90.4594 40.7412 90.5621 40.6419L90.8541 40.3499L92.3541 38.8229C92.5431 38.5984 92.756 38.3952 92.9891 38.2169Z" fill="white"/>
<path fill-rule="evenodd" clip-rule="evenodd" d="M95.8862 30.196C95.7962 29.996 92.8782 25.974 92.3862 25.233C92.2982 25.098 92.2062 25.007 92.1392 24.894C91.1501 25.2677 90.249 25.8417 89.4922 26.58L90.0072 27.254C90.9072 28.334 91.7802 29.479 92.7232 30.602L93.8672 31.902C94.1132 31.791 95.4822 30.467 95.8862 30.196Z" fill="white"/>
<path fill-rule="evenodd" clip-rule="evenodd" d="M104.327 44.145C104.26 43.988 104.104 43.898 104.013 43.785L102.935 42.796C102.823 42.682 102.735 42.596 102.598 42.459L102.081 41.966C101.792 41.719 101.701 41.607 101.545 41.466C101.051 41.018 100.175 40.005 99.7022 39.556C99.505 39.4041 99.3234 39.2329 99.1602 39.045C99.0608 38.91 98.9296 38.8018 98.7782 38.73C98.5092 39.021 96.9382 40.53 96.8252 40.751C97.2052 41.2286 97.6349 41.6644 98.1072 42.051C98.1952 42.139 98.2422 42.208 98.3072 42.276L99.4512 43.332C99.5422 43.399 99.5632 43.467 99.6512 43.532L101.964 45.553C102.099 45.643 102.12 45.643 102.256 45.575C102.804 45.2616 103.329 44.9091 103.826 44.52L104.327 44.145Z" fill="white"/>
<path fill-rule="evenodd" clip-rule="evenodd" d="M107.27 30.7139C106.894 29.7592 106.354 28.8771 105.676 28.1069C105.403 28.2668 105.148 28.4552 104.914 28.6689L103.05 30.2419C102.601 30.6229 101.55 31.4559 101.163 31.8419L100.422 32.4699C100.244 32.6499 99.8402 33.0079 99.7222 33.1699C99.8951 33.4338 100.107 33.6699 100.351 33.8699L101.025 34.5699C101.16 34.7049 101.384 34.8629 101.452 35.0429C101.744 34.9519 103.9 33.1779 104.325 32.8429C104.555 32.6507 104.795 32.4707 105.044 32.3039L106.526 31.2699C106.638 31.1819 106.773 31.0919 106.885 31.0019C107.007 30.8976 107.136 30.8014 107.27 30.7139Z" fill="white"/>
<path fill-rule="evenodd" clip-rule="evenodd" d="M93.2819 32.4219C93.2373 32.2854 93.1601 32.1618 93.0569 32.0619L91.7319 30.3319C90.8435 29.1747 90.0468 27.95 89.3489 26.6689C88.3447 27.4809 87.5188 28.4913 86.9229 29.6369C86.9919 29.7909 88.4049 31.5009 88.5169 31.6569C88.8089 31.9949 90.8079 34.4449 91.0309 34.5569L91.6149 34.0399C91.714 33.9511 91.8189 33.8689 91.9289 33.7939L93.2819 32.4219Z" fill="white"/>
<path fill-rule="evenodd" clip-rule="evenodd" d="M100.802 46.214L100.24 45.63C100.015 45.43 99.8338 45.248 99.6338 45.046L98.3098 43.746C98.2682 43.6824 98.2141 43.628 98.1508 43.586C97.7325 43.2201 97.3355 42.8304 96.9618 42.419C96.9289 42.3631 96.8907 42.3106 96.8478 42.262C96.7798 42.195 96.7368 42.172 96.6918 42.127C96.5568 41.994 96.2188 41.588 96.0388 41.543C95.892 41.7315 95.7268 41.905 95.5458 42.061C95.3458 42.217 95.2298 42.441 95.0288 42.599C94.8288 42.779 93.7918 43.992 93.5478 44.26C93.4716 44.3554 93.3891 44.4456 93.3008 44.53C93.1888 44.642 93.1648 44.687 93.0538 44.8C92.7271 45.1737 92.4197 45.5639 92.1328 45.969C92.7547 46.2463 93.4012 46.4649 94.0638 46.622C95.6053 47.0057 97.2095 47.067 98.7758 46.802C99.4764 46.7066 100.159 46.5085 100.802 46.214Z" fill="white"/>
<path fill-rule="evenodd" clip-rule="evenodd" d="M100.893 26.963C99.9722 27.727 99.0082 28.603 98.1112 29.32L97.0762 30.22C97.1979 30.4482 97.3489 30.6597 97.5252 30.849L99.1192 32.534C99.4056 32.3654 99.6693 32.1611 99.9042 31.926L100.69 31.343C100.959 31.163 101.231 30.961 101.478 30.757L105.271 27.994C105.323 27.9306 105.393 27.8843 105.471 27.861C105.132 27.4388 104.756 27.0473 104.348 26.691C104.293 26.6398 104.232 26.5945 104.167 26.556C103.718 26.1247 103.203 25.7682 102.641 25.5L100.893 26.963Z" fill="white"/>
<path fill-rule="evenodd" clip-rule="evenodd" d="M90.476 35.138C90.3413 34.9108 90.1912 34.693 90.027 34.486C89.286 33.386 88.453 32.286 87.715 31.186C87.558 30.961 87.399 30.738 87.243 30.512C87.176 30.424 87.084 30.289 87.017 30.198C86.9863 30.1418 86.9491 30.0894 86.906 30.042C86.883 30.018 86.837 29.951 86.837 29.951L86.726 29.864C86.5259 30.2429 86.3459 30.6321 86.187 31.03C86.0181 31.4477 85.8755 31.8755 85.76 32.311C85.4797 33.2981 85.3357 34.3189 85.332 35.345C85.332 36.289 85.646 39.072 86.14 39.591L86.681 39.05C86.8705 38.8792 87.0436 38.691 87.198 38.488L88.298 37.364C88.4597 37.1612 88.6398 36.9737 88.836 36.804C88.903 36.737 88.903 36.716 88.971 36.671C89.038 36.603 89.038 36.579 89.106 36.512L90.206 35.412C90.274 35.342 90.431 35.183 90.476 35.138Z" fill="white"/>
<path fill-rule="evenodd" clip-rule="evenodd" d="M107.426 31.0959C107.203 31.2079 105.742 32.4669 105.405 32.7369C105.358 32.7878 105.305 32.8331 105.248 32.8719L102.148 35.6329C102.236 35.7919 103.383 36.8909 103.648 37.1389L105.692 39.0489C105.756 39.0864 105.816 39.131 105.87 39.1819L106.342 39.5879C106.477 39.6999 107.016 40.2399 107.197 40.2609C107.875 38.8739 108.244 37.3557 108.276 35.8119C108.309 34.947 108.248 34.081 108.096 33.2289C107.979 32.4888 107.753 31.7701 107.426 31.0959Z" fill="white"/>
</svg>
